<mxfile host="Electron" modified="2024-12-05T10:45:52.350Z" agent="Mozilla/5.0 (Windows NT 10.0; Win64; x64) AppleWebKit/537.36 (KHTML, like Gecko) draw.io/23.0.2 Chrome/120.0.6099.109 Electron/28.1.0 Safari/537.36" etag="Gweyi0jYHYQJjRQGdbPr" version="23.0.2" type="device">
  <diagram name="Page-1" id="4G-0Nf0itLaq-Jog9QCV">
    <mxGraphModel dx="1820" dy="822" grid="0" gridSize="10" guides="1" tooltips="1" connect="1" arrows="1" fold="1" page="0" pageScale="1" pageWidth="827" pageHeight="1169" math="0" shadow="0">
      <root>
        <mxCell id="0" />
        <mxCell id="1" parent="0" />
        <mxCell id="GsVWvgnmeKKMsuwTdK1G-13" style="edgeStyle=orthogonalEdgeStyle;rounded=0;orthogonalLoop=1;jettySize=auto;html=1;exitX=1;exitY=0.5;exitDx=0;exitDy=0;entryX=0;entryY=0.5;entryDx=0;entryDy=0;" parent="1" source="GsVWvgnmeKKMsuwTdK1G-2" target="GsVWvgnmeKKMsuwTdK1G-11" edge="1">
          <mxGeometry relative="1" as="geometry" />
        </mxCell>
        <mxCell id="GsVWvgnmeKKMsuwTdK1G-25" style="edgeStyle=orthogonalEdgeStyle;rounded=0;orthogonalLoop=1;jettySize=auto;html=1;exitX=0.5;exitY=1;exitDx=0;exitDy=0;" parent="1" source="GsVWvgnmeKKMsuwTdK1G-2" target="GsVWvgnmeKKMsuwTdK1G-16" edge="1">
          <mxGeometry relative="1" as="geometry" />
        </mxCell>
        <mxCell id="GsVWvgnmeKKMsuwTdK1G-2" value="Symbols&lt;br&gt;(Composants)" style="rounded=0;whiteSpace=wrap;html=1;align=left;horizontal=1;verticalAlign=middle;fillColor=#f5f5f5;fontColor=#333333;strokeColor=#666666;" parent="1" vertex="1">
          <mxGeometry x="5" y="70.5" width="150" height="100" as="geometry" />
        </mxCell>
        <mxCell id="GsVWvgnmeKKMsuwTdK1G-9" value="IC" style="shadow=0;dashed=0;align=center;html=1;strokeWidth=1;shape=mxgraph.electrical.logic_gates.dual_inline_ic;labelNames=a,b,c,d,e,f,g,h,i,j,k,l,m,n,o,p,q,r,s,t;whiteSpace=wrap;" parent="1" vertex="1">
          <mxGeometry x="95" y="100.5" width="50" height="40" as="geometry" />
        </mxCell>
        <mxCell id="GsVWvgnmeKKMsuwTdK1G-14" style="edgeStyle=orthogonalEdgeStyle;rounded=0;orthogonalLoop=1;jettySize=auto;html=1;exitX=1;exitY=0.5;exitDx=0;exitDy=0;" parent="1" source="GsVWvgnmeKKMsuwTdK1G-11" edge="1">
          <mxGeometry relative="1" as="geometry">
            <mxPoint x="364.72415476831907" y="120.12068965517244" as="targetPoint" />
          </mxGeometry>
        </mxCell>
        <mxCell id="GsVWvgnmeKKMsuwTdK1G-26" style="edgeStyle=orthogonalEdgeStyle;rounded=0;orthogonalLoop=1;jettySize=auto;html=1;exitX=0.5;exitY=1;exitDx=0;exitDy=0;" parent="1" source="GsVWvgnmeKKMsuwTdK1G-11" target="GsVWvgnmeKKMsuwTdK1G-16" edge="1">
          <mxGeometry relative="1" as="geometry" />
        </mxCell>
        <mxCell id="GsVWvgnmeKKMsuwTdK1G-11" value="Footprints&lt;br style=&quot;border-color: var(--border-color); text-align: center;&quot;&gt;&lt;span style=&quot;text-align: center;&quot;&gt;(Empreintes)&lt;/span&gt;" style="rounded=0;whiteSpace=wrap;html=1;align=left;horizontal=1;verticalAlign=middle;fillColor=#f5f5f5;fontColor=#333333;strokeColor=#666666;" parent="1" vertex="1">
          <mxGeometry x="185" y="70" width="150" height="100" as="geometry" />
        </mxCell>
        <mxCell id="GsVWvgnmeKKMsuwTdK1G-10" value="" style="sketch=0;outlineConnect=0;fontColor=#232F3E;gradientColor=none;fillColor=#DD344C;strokeColor=none;dashed=0;verticalLabelPosition=bottom;verticalAlign=top;align=center;html=1;fontSize=12;fontStyle=0;aspect=fixed;pointerEvents=1;shape=mxgraph.aws4.development_environment;" parent="1" vertex="1">
          <mxGeometry x="275" y="99.5" width="45.04" height="41" as="geometry" />
        </mxCell>
        <mxCell id="GsVWvgnmeKKMsuwTdK1G-27" style="edgeStyle=orthogonalEdgeStyle;rounded=0;orthogonalLoop=1;jettySize=auto;html=1;exitX=0.5;exitY=1;exitDx=0;exitDy=0;" parent="1" source="GsVWvgnmeKKMsuwTdK1G-12" target="GsVWvgnmeKKMsuwTdK1G-16" edge="1">
          <mxGeometry relative="1" as="geometry" />
        </mxCell>
        <mxCell id="GsVWvgnmeKKMsuwTdK1G-12" value="3D Models&lt;br style=&quot;border-color: var(--border-color); text-align: center;&quot;&gt;&lt;span style=&quot;text-align: center;&quot;&gt;(Vue 3D)&lt;/span&gt;" style="rounded=0;whiteSpace=wrap;html=1;align=left;horizontal=1;verticalAlign=middle;fillColor=#f5f5f5;fontColor=#333333;strokeColor=#666666;" parent="1" vertex="1">
          <mxGeometry x="365" y="70" width="150" height="100" as="geometry" />
        </mxCell>
        <mxCell id="GsVWvgnmeKKMsuwTdK1G-8" value="" style="verticalLabelPosition=bottom;html=1;verticalAlign=top;strokeWidth=1;align=center;outlineConnect=0;dashed=0;outlineConnect=0;shape=mxgraph.aws3d.application2;fillColor=#86E83A;strokeColor=#B0F373;aspect=fixed;" parent="1" vertex="1">
          <mxGeometry x="445" y="100.5" width="52.65" height="45" as="geometry" />
        </mxCell>
        <mxCell id="GsVWvgnmeKKMsuwTdK1G-24" style="edgeStyle=orthogonalEdgeStyle;rounded=0;orthogonalLoop=1;jettySize=auto;html=1;exitX=0.5;exitY=1;exitDx=0;exitDy=0;entryX=0.75;entryY=0;entryDx=0;entryDy=0;" parent="1" source="GsVWvgnmeKKMsuwTdK1G-16" target="GsVWvgnmeKKMsuwTdK1G-21" edge="1">
          <mxGeometry relative="1" as="geometry" />
        </mxCell>
        <mxCell id="GsVWvgnmeKKMsuwTdK1G-16" value="&amp;nbsp; &amp;nbsp; &amp;nbsp;Github link&lt;br&gt;&amp;nbsp; &amp;nbsp; &amp;nbsp;(Lien Github)" style="rounded=0;whiteSpace=wrap;html=1;align=left;horizontal=1;verticalAlign=middle;" parent="1" vertex="1">
          <mxGeometry x="187.5" y="219.5" width="145" height="45" as="geometry" />
        </mxCell>
        <mxCell id="GsVWvgnmeKKMsuwTdK1G-17" value="" style="dashed=0;outlineConnect=0;html=1;align=center;labelPosition=center;verticalLabelPosition=bottom;verticalAlign=top;shape=mxgraph.weblogos.github" parent="1" vertex="1">
          <mxGeometry x="282.04" y="223" width="38" height="36" as="geometry" />
        </mxCell>
        <mxCell id="GsVWvgnmeKKMsuwTdK1G-23" style="edgeStyle=orthogonalEdgeStyle;rounded=0;orthogonalLoop=1;jettySize=auto;html=1;exitX=0.885;exitY=0.4;exitDx=0;exitDy=0;exitPerimeter=0;entryX=0;entryY=0.5;entryDx=0;entryDy=0;" parent="1" source="GsVWvgnmeKKMsuwTdK1G-19" target="GsVWvgnmeKKMsuwTdK1G-21" edge="1">
          <mxGeometry relative="1" as="geometry" />
        </mxCell>
        <mxCell id="GsVWvgnmeKKMsuwTdK1G-19" value="" style="points=[[0.13,0.02,0],[0.5,0,0],[0.87,0.02,0],[0.885,0.4,0],[0.985,0.985,0],[0.5,1,0],[0.015,0.985,0],[0.115,0.4,0]];verticalLabelPosition=bottom;sketch=0;html=1;verticalAlign=top;aspect=fixed;align=center;pointerEvents=1;shape=mxgraph.cisco19.laptop;fillColor=#005073;strokeColor=none;" parent="1" vertex="1">
          <mxGeometry x="-52" y="349" width="108.57" height="76" as="geometry" />
        </mxCell>
        <mxCell id="GsVWvgnmeKKMsuwTdK1G-21" value="" style="shape=mxgraph.gcp2.doubleRect;strokeColor=#6c8ebf;shadow=1;strokeWidth=1;rounded=1;absoluteArcSize=1;arcSize=2;fillColor=#dae8fc;" parent="1" vertex="1">
          <mxGeometry x="89" y="346" width="228" height="68" as="geometry" />
        </mxCell>
        <mxCell id="GsVWvgnmeKKMsuwTdK1G-22" value="Plugins and Content&amp;nbsp;&lt;br&gt;&lt;span style=&quot;color: rgb(0, 0, 0); text-align: center;&quot;&gt;Manager&lt;br&gt;(Gestionnaire de plugins)&lt;br&gt;&lt;/span&gt;" style="editableCssRules=.*;html=1;fontColor=#999999;shape=image;verticalLabelPosition=middle;verticalAlign=middle;labelPosition=right;align=left;spacingLeft=20;part=1;points=[];imageAspect=0;image=data:image/svg+xml,PHN2ZyB4bWxucz0iaHR0cDovL3d3dy53My5vcmcvMjAwMC9zdmciIHhtbG5zOnY9Imh0dHBzOi8vdmVjdGEuaW8vbmFubyIgd2lkdGg9IjQyNCIgaGVpZ2h0PSI0MjQiIHZpZXdCb3g9IjAgMCA0MjQgNDI0Ij4mI3hhOwk8c3R5bGUgdHlwZT0idGV4dC9jc3MiPiYjeGE7CS5zdDB7ZmlsbDojNDI4NWY0O30mI3hhOwk8L3N0eWxlPiYjeGE7CTxwYXRoIGNsYXNzPSJzdDAiIGQ9Ik00MjQgMHY0MjRIMFYwek0yMTIgOTcuODQ2Yy0zNy44ODQgMC03MC4xNjQgMjMuOTktODIuNDc4IDU3LjYwOGgwbC0zLjQwMy4wMDFjLTQyLjYzNCAwLTc3LjE5NiAzNC41NjItNzcuMTk2IDc3LjE5NnMzNC41NjIgNzcuMTk2IDc3LjE5NiA3Ny4xOTZoMCAxNzEuNzYzYzQyLjYzNCAwIDc3LjE5Ni0zNC41NjIgNzcuMTk2LTc3LjE5NnMtMzQuNTYyLTc3LjE5Ni03Ny4xOTYtNzcuMTk2aDBsLTMuNDAzLS4wMDFDMjgyLjE2NCAxMjEuODM3IDI0OS44ODQgOTcuODQ2IDIxMiA5Ny44NDZ6IiBmaWxsLXJ1bGU9ImV2ZW5vZGQiLz4mI3hhOzwvc3ZnPg==;" parent="GsVWvgnmeKKMsuwTdK1G-21" vertex="1">
          <mxGeometry width="30" height="30" relative="1" as="geometry">
            <mxPoint x="15" y="15" as="offset" />
          </mxGeometry>
        </mxCell>
        <mxCell id="GsVWvgnmeKKMsuwTdK1G-28" value="Client" style="text;html=1;strokeColor=none;fillColor=none;align=center;verticalAlign=middle;whiteSpace=wrap;rounded=0;" parent="1" vertex="1">
          <mxGeometry x="-27.70999999999998" y="425" width="60" height="30" as="geometry" />
        </mxCell>
        <mxCell id="GsVWvgnmeKKMsuwTdK1G-33" style="edgeStyle=orthogonalEdgeStyle;rounded=0;orthogonalLoop=1;jettySize=auto;html=1;exitX=1;exitY=0.5;exitDx=0;exitDy=0;" parent="1" source="GsVWvgnmeKKMsuwTdK1G-31" target="GsVWvgnmeKKMsuwTdK1G-16" edge="1">
          <mxGeometry relative="1" as="geometry" />
        </mxCell>
        <mxCell id="GsVWvgnmeKKMsuwTdK1G-31" value="Plugins&lt;br&gt;(Extension)" style="rounded=0;whiteSpace=wrap;html=1;align=left;horizontal=1;verticalAlign=middle;fillColor=#f5f5f5;fontColor=#333333;strokeColor=#666666;" parent="1" vertex="1">
          <mxGeometry x="-117.71" y="192" width="150" height="100" as="geometry" />
        </mxCell>
        <mxCell id="GsVWvgnmeKKMsuwTdK1G-29" value="" style="strokeColor=#dddddd;shadow=1;strokeWidth=1;rounded=1;absoluteArcSize=1;arcSize=2;" parent="1" vertex="1">
          <mxGeometry x="-49" y="209.75" width="63" height="64.5" as="geometry" />
        </mxCell>
        <mxCell id="GsVWvgnmeKKMsuwTdK1G-30" value="" style="editableCssRules=.*;html=1;fontColor=#999999;shape=image;verticalLabelPosition=middle;verticalAlign=middle;labelPosition=right;align=left;spacingLeft=20;part=1;points=[];imageAspect=0;image=data:image/svg+xml,PHN2ZyB4bWxucz0iaHR0cDovL3d3dy53My5vcmcvMjAwMC9zdmciIHhtbG5zOnY9Imh0dHBzOi8vdmVjdGEuaW8vbmFubyIgd2lkdGg9IjQyNCIgaGVpZ2h0PSI0MjQiIHZpZXdCb3g9IjAgMCA0MjQgNDI0Ij4mI3hhOwk8c3R5bGUgdHlwZT0idGV4dC9jc3MiPiYjeGE7CS5zdDB7ZmlsbDojNDI4NWY0O30mI3hhOwk8L3N0eWxlPiYjeGE7CTxwYXRoIGNsYXNzPSJzdDAiIGQ9Ik00MjQgMHY0MjRIMFYwek0yMTIgOTcuODQ2Yy0zNy44ODQgMC03MC4xNjQgMjMuOTktODIuNDc4IDU3LjYwOGgwbC0zLjQwMy4wMDFjLTQyLjYzNCAwLTc3LjE5NiAzNC41NjItNzcuMTk2IDc3LjE5NnMzNC41NjIgNzcuMTk2IDc3LjE5NiA3Ny4xOTZoMCAxNzEuNzYzYzQyLjYzNCAwIDc3LjE5Ni0zNC41NjIgNzcuMTk2LTc3LjE5NnMtMzQuNTYyLTc3LjE5Ni03Ny4xOTYtNzcuMTk2aDBsLTMuNDAzLS4wMDFDMjgyLjE2NCAxMjEuODM3IDI0OS44ODQgOTcuODQ2IDIxMiA5Ny44NDZ6IiBmaWxsLXJ1bGU9ImV2ZW5vZGQiLz4mI3hhOzwvc3ZnPg==;" parent="GsVWvgnmeKKMsuwTdK1G-29" vertex="1">
          <mxGeometry width="30" height="30" relative="1" as="geometry">
            <mxPoint x="15" y="15" as="offset" />
          </mxGeometry>
        </mxCell>
        <mxCell id="GsVWvgnmeKKMsuwTdK1G-39" style="edgeStyle=orthogonalEdgeStyle;rounded=0;orthogonalLoop=1;jettySize=auto;html=1;exitX=0;exitY=0.5;exitDx=0;exitDy=0;entryX=1;entryY=0.5;entryDx=0;entryDy=0;" parent="1" source="GsVWvgnmeKKMsuwTdK1G-34" target="GsVWvgnmeKKMsuwTdK1G-16" edge="1">
          <mxGeometry relative="1" as="geometry" />
        </mxCell>
        <mxCell id="GsVWvgnmeKKMsuwTdK1G-34" value="Themes&lt;br&gt;(Couleurs de thème)" style="rounded=0;whiteSpace=wrap;html=1;align=left;horizontal=1;verticalAlign=middle;fillColor=#f5f5f5;fontColor=#333333;strokeColor=#666666;" parent="1" vertex="1">
          <mxGeometry x="492.00000000000006" y="192" width="150" height="100" as="geometry" />
        </mxCell>
        <mxCell id="GsVWvgnmeKKMsuwTdK1G-35" value="" style="verticalLabelPosition=bottom;verticalAlign=top;html=1;shadow=0;dashed=0;strokeWidth=1;strokeColor=none;shape=rect;fillColor=#33b5e5;" parent="1" vertex="1">
          <mxGeometry x="618" y="210" width="12" height="14" as="geometry" />
        </mxCell>
        <mxCell id="GsVWvgnmeKKMsuwTdK1G-36" value="" style="verticalLabelPosition=bottom;verticalAlign=top;html=1;shadow=0;dashed=0;strokeWidth=1;strokeColor=none;shape=rect;fillColor=#99cc00;" parent="1" vertex="1">
          <mxGeometry x="618" y="235" width="12" height="12" as="geometry" />
        </mxCell>
        <mxCell id="GsVWvgnmeKKMsuwTdK1G-38" value="" style="verticalLabelPosition=bottom;verticalAlign=top;html=1;shadow=0;dashed=0;strokeWidth=1;strokeColor=none;shape=rect;fillColor=#cc0000;" parent="1" vertex="1">
          <mxGeometry x="618" y="258" width="12" height="11" as="geometry" />
        </mxCell>
      </root>
    </mxGraphModel>
  </diagram>
</mxfile>
